<svg xmlns="http://www.w3.org/2000/svg" width="200" height="150.003" viewBox="0 0 200 150.003"><path d="M38.966,265.117a13.957,13.957,0,0,0-13.879,13.867v94.79a13.966,13.966,0,0,0,13.879,13.879h146.41a13.966,13.966,0,0,0,13.879-13.879v-94.79a13.957,13.957,0,0,0-13.879-13.867Zm0,6.777h146.41a7.243,7.243,0,0,1,7.1,7.09v94.79a7.251,7.251,0,0,1-7.1,7.1H38.966a7.251,7.251,0,0,1-7.1-7.1v-94.79A7.243,7.243,0,0,1,38.966,271.894Zm2.027,5.738a3.391,3.391,0,0,0-3.392,3.386v90.729a3.391,3.391,0,0,0,3.392,3.391H183.348a3.391,3.391,0,0,0,3.392-3.392V281.018a3.391,3.391,0,0,0-3.392-3.385Zm3.392,6.777H179.957v83.946H44.385ZM24.16,391.484a11.771,11.771,0,0,0-8.986,3.711,12.442,12.442,0,0,0,0,16.213,11.781,11.781,0,0,0,8.986,3.711H200.181a11.771,11.771,0,0,0,8.986-3.711,12.442,12.442,0,0,0,0-16.213,11.783,11.783,0,0,0-8.986-3.711Zm-.1,6.777H200.281a4.56,4.56,0,0,1,3.842,1.465,5.691,5.691,0,0,1,0,7.152,4.557,4.557,0,0,1-3.842,1.464H24.061a4.559,4.559,0,0,1-3.842-1.464,5.669,5.669,0,0,1,0-7.152,4.557,4.557,0,0,1,3.842-1.464Z" transform="translate(-12.171 -265.117)"/></svg>